M48
INCH
T01C0.0256
T02C0.0787
T03C0.1562
T04C0.1562
%
T01
X+009704Y+007171
X+010095Y+007171
X+010095Y+006781
X+009704Y+006781
X+009704Y+006390
X+009704Y+006000
X+010095Y+006000
X+010095Y+006390
X+010486Y+006390
X+010876Y+006390
X+010876Y+006000
X+010876Y+005609
X+010486Y+005609
X+010095Y+005609
X+009704Y+005609
X+010486Y+006781
X+010876Y+006781
X+010876Y+007171
X+010486Y+007171
X+011267Y+007171
X+011658Y+007171
X+012048Y+007171
X+012439Y+006781
X+012829Y+007171
X+013220Y+007171
X+013220Y+006390
X+012829Y+006390
X+012439Y+006000
X+012439Y+005609
X+012829Y+005609
X+013220Y+005609
X+012048Y+005609
X+011658Y+005609
X+011267Y+005609
X+011267Y+006000
X+011267Y+006390
X+011658Y+006390
X+012048Y+006390
T02
X+006501Y+006390
X+016345Y+006390
T03
X+008624Y+006390
T04
X+014249Y+006390
T00
M30
