G04 DipTrace 3.3.1.3*
G04 BottomSilk.gbr*
%MOIN*%
G04 #@! TF.FileFunction,Legend,Bot*
G04 #@! TF.Part,Single*
%ADD12C,0.003*%
%ADD33C,0.003088*%
%FSLAX26Y26*%
G04*
G70*
G90*
G75*
G01*
G04 BotSilk*
%LPD*%
X803077Y725074D2*
D12*
X854077D1*
X799051Y722074D2*
X858102D1*
X795170Y719074D2*
X861983D1*
X791707Y716074D2*
X815203D1*
X841951D2*
X865447D1*
X788807Y713074D2*
X809704D1*
X847449D2*
X868346D1*
X786498Y710074D2*
X804923D1*
X852230D2*
X870655D1*
X784607Y707074D2*
X800922D1*
X856231D2*
X872546D1*
X782934Y704074D2*
X797538D1*
X830077D2*
X839077D1*
X845077D2*
X854077D1*
X859615D2*
X874220D1*
X781368Y701074D2*
X794721D1*
X830077D2*
X839077D1*
X845077D2*
X854077D1*
X862433D2*
X875786D1*
X779851Y698074D2*
X792460D1*
X830077D2*
X839077D1*
X845077D2*
X854077D1*
X864693D2*
X877302D1*
X778450Y695074D2*
X790592D1*
X830077D2*
X839077D1*
X845077D2*
X854077D1*
X866561D2*
X878703D1*
X777338Y692074D2*
X788940D1*
X830077D2*
X839077D1*
X845077D2*
X854077D1*
X868214D2*
X879815D1*
X776664Y689074D2*
X787483D1*
X812077D2*
X821077D1*
X830077D2*
X839077D1*
X845077D2*
X854077D1*
X869671D2*
X880490D1*
X776324Y686074D2*
X786350D1*
X812077D2*
X821077D1*
X830077D2*
X839077D1*
X845077D2*
X854077D1*
X870803D2*
X880829D1*
X776174Y683074D2*
X785668D1*
X812077D2*
X821077D1*
X830077D2*
X839077D1*
X845077D2*
X854077D1*
X871486D2*
X880980D1*
X776113Y680074D2*
X785325D1*
X812077D2*
X821077D1*
X830077D2*
X839077D1*
X845077D2*
X854077D1*
X871828D2*
X881041D1*
X776089Y677074D2*
X785174D1*
X812077D2*
X821077D1*
X830077D2*
X839077D1*
X845077D2*
X854077D1*
X871979D2*
X881064D1*
X776081Y674074D2*
X785124D1*
X812077D2*
X821077D1*
X830088D2*
X839077D1*
X845077D2*
X854053D1*
X872029D2*
X881072D1*
X776078Y671074D2*
X785207D1*
X812077D2*
X821077D1*
X830203D2*
X853825D1*
X871947D2*
X881075D1*
X776089Y668074D2*
X785592D1*
X812077D2*
X821077D1*
X830666D2*
X853280D1*
X871561D2*
X881064D1*
X776194Y665074D2*
X786413D1*
X812077D2*
X821077D1*
X831692D2*
X850942D1*
X870740D2*
X880959D1*
X776588Y662074D2*
X787576D1*
X812077D2*
X821077D1*
X833077D2*
X848077D1*
X869578D2*
X880565D1*
X777412Y659074D2*
X788934D1*
X812077D2*
X821077D1*
X868219D2*
X879741D1*
X778575Y656074D2*
X790481D1*
X803077D2*
X821077D1*
X866672D2*
X878578D1*
X779922Y653074D2*
X792349D1*
X803077D2*
X821077D1*
X864804D2*
X877231D1*
X781364Y650074D2*
X794679D1*
X803077D2*
X821077D1*
X862474D2*
X875790D1*
X782850Y647074D2*
X797454D1*
X803077D2*
X821077D1*
X859699D2*
X874303D1*
X784449Y644074D2*
X800802D1*
X856352D2*
X872704D1*
X786350Y641074D2*
X804681D1*
X852206D2*
X870803D1*
X788781Y638074D2*
X809753D1*
X847311D2*
X868373D1*
X791826Y635074D2*
X815077D1*
X842077D2*
X865328D1*
X795419Y632074D2*
X861734D1*
X799249Y629074D2*
X857904D1*
X803077Y626074D2*
X854077D1*
X803077Y725074D2*
X799051Y722074D1*
X795170Y719074D1*
X791707Y716074D1*
X788807Y713074D1*
X786498Y710074D1*
X784607Y707074D1*
X782934Y704074D1*
X781368Y701074D1*
X779851Y698074D1*
X778450Y695074D1*
X777338Y692074D1*
X776664Y689074D1*
X776324Y686074D1*
X776174Y683074D1*
X776113Y680074D1*
X776089Y677074D1*
X776081Y674074D1*
X776078Y671074D1*
X776089Y668074D1*
X776194Y665074D1*
X776588Y662074D1*
X777412Y659074D1*
X778575Y656074D1*
X779922Y653074D1*
X781364Y650074D1*
X782850Y647074D1*
X784449Y644074D1*
X786350Y641074D1*
X788781Y638074D1*
X791826Y635074D1*
X795419Y632074D1*
X799249Y629074D1*
X803077Y626074D1*
X854077Y725074D2*
X858102Y722074D1*
X861983Y719074D1*
X865447Y716074D1*
X868346Y713074D1*
X870655Y710074D1*
X872546Y707074D1*
X874220Y704074D1*
X875786Y701074D1*
X877302Y698074D1*
X878703Y695074D1*
X879815Y692074D1*
X880490Y689074D1*
X880829Y686074D1*
X880980Y683074D1*
X881041Y680074D1*
X881064Y677074D1*
X881072Y674074D1*
X881075Y671074D1*
X881064Y668074D1*
X880959Y665074D1*
X880565Y662074D1*
X879741Y659074D1*
X878578Y656074D1*
X877231Y653074D1*
X875790Y650074D1*
X874303Y647074D1*
X872704Y644074D1*
X870803Y641074D1*
X868373Y638074D1*
X865328Y635074D1*
X861734Y632074D1*
X857904Y629074D1*
X854077Y626074D1*
X821077Y719074D2*
X815203Y716074D1*
X809704Y713074D1*
X804923Y710074D1*
X800922Y707074D1*
X797538Y704074D1*
X794721Y701074D1*
X792460Y698074D1*
X790592Y695074D1*
X788940Y692074D1*
X787483Y689074D1*
X786350Y686074D1*
X785668Y683074D1*
X785325Y680074D1*
X785174Y677074D1*
X785124Y674074D1*
X785207Y671074D1*
X785592Y668074D1*
X786413Y665074D1*
X787576Y662074D1*
X788934Y659074D1*
X790481Y656074D1*
X792349Y653074D1*
X794679Y650074D1*
X797454Y647074D1*
X800802Y644074D1*
X804948Y641074D1*
X809842Y638074D1*
X815077Y635074D1*
X836077Y719074D2*
X841951Y716074D1*
X847449Y713074D1*
X852230Y710074D1*
X856231Y707074D1*
X859615Y704074D1*
X862433Y701074D1*
X864693Y698074D1*
X866561Y695074D1*
X868214Y692074D1*
X869671Y689074D1*
X870803Y686074D1*
X871486Y683074D1*
X871828Y680074D1*
X871979Y677074D1*
X872029Y674074D1*
X871947Y671074D1*
X871561Y668074D1*
X870740Y665074D1*
X869578Y662074D1*
X868219Y659074D1*
X866672Y656074D1*
X864804Y653074D1*
X862474Y650074D1*
X859699Y647074D1*
X856352Y644074D1*
X852206Y641074D1*
X847311Y638074D1*
X842077Y635074D1*
X830077Y704074D2*
Y701074D1*
Y698074D1*
Y695074D1*
Y692074D1*
Y689074D1*
Y686074D1*
Y683074D1*
Y680074D1*
Y677074D1*
X830088Y674074D1*
X830203Y671074D1*
X830666Y668074D1*
X831692Y665074D1*
X833077Y662074D1*
X839077Y704074D2*
Y701074D1*
Y698074D1*
Y695074D1*
Y692074D1*
Y689074D1*
Y686074D1*
Y683074D1*
Y680074D1*
Y677074D1*
Y674074D1*
X845077Y704074D2*
Y701074D1*
Y698074D1*
Y695074D1*
Y692074D1*
Y689074D1*
Y686074D1*
Y683074D1*
Y680074D1*
Y677074D1*
Y674074D1*
X854077Y704074D2*
Y701074D1*
Y698074D1*
Y695074D1*
Y692074D1*
Y689074D1*
Y686074D1*
Y683074D1*
Y680074D1*
Y677074D1*
X854053Y674074D1*
X853825Y671074D1*
X853280Y668074D1*
X850942Y665074D1*
X848077Y662074D1*
X812077Y689074D2*
Y686074D1*
Y683074D1*
Y680074D1*
Y677074D1*
Y674074D1*
Y671074D1*
Y668074D1*
Y665074D1*
Y662074D1*
Y659074D1*
Y656074D1*
X803077D1*
Y653074D1*
Y650074D1*
Y647074D1*
X821077Y689074D2*
Y686074D1*
Y683074D1*
Y680074D1*
Y677074D1*
Y674074D1*
Y671074D1*
Y668074D1*
Y665074D1*
Y662074D1*
Y659074D1*
Y656074D1*
Y653074D1*
Y650074D1*
Y647074D1*
X800077Y644074D1*
X804681Y641074D1*
X809753Y638074D1*
X815077Y635074D1*
X1154586Y1933590D2*
D33*
X1153613Y1936464D1*
X1151712Y1938388D1*
X1148838Y1939338D1*
X1147887D1*
X1145013Y1938388D1*
X1143112Y1936464D1*
X1142139Y1933590D1*
Y1932640D1*
X1143112Y1929766D1*
X1145013Y1927864D1*
X1147887Y1926914D1*
X1148838D1*
X1151712Y1927864D1*
X1153613Y1929766D1*
X1154586Y1933590D1*
Y1938388D1*
X1153613Y1943163D1*
X1151712Y1946037D1*
X1148838Y1946988D1*
X1146936D1*
X1144062Y1946037D1*
X1143112Y1944114D1*
X1243298Y1926914D2*
X1240446Y1927864D1*
X1239474Y1929766D1*
Y1931689D1*
X1240446Y1933590D1*
X1242348Y1934563D1*
X1246172Y1935514D1*
X1249046Y1936464D1*
X1250948Y1938388D1*
X1251898Y1940289D1*
Y1943163D1*
X1250948Y1945064D1*
X1249997Y1946037D1*
X1247123Y1946988D1*
X1243298D1*
X1240446Y1946037D1*
X1239474Y1945064D1*
X1238523Y1943163D1*
Y1940289D1*
X1239474Y1938388D1*
X1241397Y1936464D1*
X1244249Y1935514D1*
X1248074Y1934563D1*
X1249997Y1933590D1*
X1250948Y1931689D1*
Y1929766D1*
X1249997Y1927864D1*
X1247123Y1926914D1*
X1243298D1*
X1335836Y1930738D2*
X1337759Y1929766D1*
X1340633Y1926914D1*
Y1946988D1*
X1347781Y1931689D2*
Y1930738D1*
X1348732Y1928815D1*
X1349683Y1927864D1*
X1351606Y1926914D1*
X1355431D1*
X1357332Y1927864D1*
X1358283Y1928815D1*
X1359255Y1930738D1*
Y1932640D1*
X1358283Y1934563D1*
X1356381Y1937415D1*
X1346809Y1946988D1*
X1360206D1*
X1447968D2*
X1457541Y1926914D1*
X1444143D1*
X1542451Y1931689D2*
Y1930738D1*
X1543401Y1928815D1*
X1544352Y1927864D1*
X1546275Y1926914D1*
X1550100D1*
X1552001Y1927864D1*
X1552952Y1928815D1*
X1553924Y1930738D1*
Y1932640D1*
X1552952Y1934563D1*
X1551050Y1937415D1*
X1541478Y1946988D1*
X1554875D1*
X1566799Y1926914D2*
X1563925Y1927864D1*
X1562001Y1930738D1*
X1561051Y1935514D1*
Y1938388D1*
X1562001Y1943163D1*
X1563925Y1946037D1*
X1566799Y1946988D1*
X1568700D1*
X1571574Y1946037D1*
X1573475Y1943163D1*
X1574448Y1938388D1*
Y1935514D1*
X1573475Y1930738D1*
X1571574Y1927864D1*
X1568700Y1926914D1*
X1566799D1*
X1573475Y1930738D2*
X1562001Y1943163D1*
X1650419Y1929766D2*
X1649468Y1927864D1*
X1646594Y1926914D1*
X1644693D1*
X1641819Y1927864D1*
X1639896Y1930738D1*
X1638945Y1935514D1*
Y1940289D1*
X1639896Y1944114D1*
X1641819Y1946037D1*
X1644693Y1946988D1*
X1645644D1*
X1648496Y1946037D1*
X1650419Y1944114D1*
X1651370Y1941240D1*
Y1940289D1*
X1650419Y1937415D1*
X1648496Y1935514D1*
X1645644Y1934563D1*
X1644693D1*
X1641819Y1935514D1*
X1639896Y1937415D1*
X1638945Y1940289D1*
X1735307Y1930738D2*
X1737230Y1929766D1*
X1740104Y1926914D1*
Y1946988D1*
X1746280Y1930738D2*
X1748203Y1929766D1*
X1751077Y1926914D1*
Y1946988D1*
X1846489Y1926914D2*
X1836938D1*
X1835987Y1935514D1*
X1836938Y1934563D1*
X1839812Y1933590D1*
X1842664D1*
X1845538Y1934563D1*
X1847461Y1936464D1*
X1848412Y1939338D1*
Y1941240D1*
X1847461Y1944114D1*
X1845538Y1946037D1*
X1842664Y1946988D1*
X1839812D1*
X1836938Y1946037D1*
X1835987Y1945064D1*
X1835015Y1943163D1*
X1932349Y1930738D2*
X1934272Y1929766D1*
X1937146Y1926914D1*
X1937147Y1946988D1*
X1955769Y1933590D2*
X1954796Y1936464D1*
X1952895Y1938388D1*
X1950021Y1939338D1*
X1949070D1*
X1946196Y1938388D1*
X1944295Y1936464D1*
X1943322Y1933590D1*
Y1932640D1*
X1944295Y1929766D1*
X1946196Y1927864D1*
X1949070Y1926914D1*
X1950021D1*
X1952895Y1927864D1*
X1954796Y1929766D1*
X1955769Y1933590D1*
Y1938388D1*
X1954796Y1943163D1*
X1952895Y1946037D1*
X1950021Y1946988D1*
X1948120D1*
X1945246Y1946037D1*
X1944295Y1944114D1*
X1955930Y616475D2*
Y617425D1*
X1954979Y619349D1*
X1954028Y620299D1*
X1952105Y621250D1*
X1948280D1*
X1946379Y620299D1*
X1945429Y619349D1*
X1944456Y617425D1*
Y615524D1*
X1945429Y613601D1*
X1947330Y610749D1*
X1956902Y601176D1*
X1943505D1*
X1924883Y614573D2*
X1925856Y611699D1*
X1927757Y609776D1*
X1930631Y608825D1*
X1931581D1*
X1934455Y609776D1*
X1936357Y611699D1*
X1937329Y614573D1*
Y615524D1*
X1936357Y618398D1*
X1934455Y620299D1*
X1931581Y621250D1*
X1930631D1*
X1927757Y620299D1*
X1925856Y618398D1*
X1924883Y614573D1*
Y609776D1*
X1925856Y605001D1*
X1927757Y602127D1*
X1930631Y601176D1*
X1932532D1*
X1935406Y602127D1*
X1936357Y604050D1*
X1858463Y621250D2*
X1847961D1*
X1853687Y613601D1*
X1850813D1*
X1848912Y612650D1*
X1847961Y611699D1*
X1846989Y608825D1*
Y606924D1*
X1847961Y604050D1*
X1849863Y602127D1*
X1852737Y601176D1*
X1855611D1*
X1858463Y602127D1*
X1859413Y603100D1*
X1860386Y605001D1*
X1835065Y621250D2*
X1837939Y620299D1*
X1839862Y617425D1*
X1840813Y612650D1*
Y609776D1*
X1839862Y605001D1*
X1837939Y602127D1*
X1835065Y601176D1*
X1833164D1*
X1830290Y602127D1*
X1828388Y605001D1*
X1827416Y609776D1*
Y612650D1*
X1828388Y617425D1*
X1830290Y620299D1*
X1833164Y621250D1*
X1835065D1*
X1828388Y617425D2*
X1839862Y605001D1*
X1760995Y621250D2*
X1750494D1*
X1756220Y613601D1*
X1753346D1*
X1751445Y612650D1*
X1750494Y611699D1*
X1749521Y608825D1*
Y606924D1*
X1750494Y604050D1*
X1752395Y602127D1*
X1755269Y601176D1*
X1758143D1*
X1760995Y602127D1*
X1761946Y603100D1*
X1762919Y605001D1*
X1743346Y617425D2*
X1741422Y618398D1*
X1738548Y621250D1*
Y601176D1*
X1652688Y621250D2*
X1642186D1*
X1647912Y613601D1*
X1645038D1*
X1643137Y612650D1*
X1642186Y611699D1*
X1641214Y608825D1*
Y606924D1*
X1642186Y604050D1*
X1644088Y602127D1*
X1646962Y601176D1*
X1649836D1*
X1652688Y602127D1*
X1653638Y603100D1*
X1654611Y605001D1*
X1634065Y616475D2*
Y617425D1*
X1633115Y619349D1*
X1632164Y620299D1*
X1630241Y621250D1*
X1626416D1*
X1624515Y620299D1*
X1623564Y619349D1*
X1622591Y617425D1*
Y615524D1*
X1623564Y613601D1*
X1625465Y610749D1*
X1635038Y601176D1*
X1621641D1*
X1555220Y621250D2*
X1544719D1*
X1550445Y613601D1*
X1547571D1*
X1545670Y612650D1*
X1544719Y611699D1*
X1543746Y608825D1*
Y606924D1*
X1544719Y604050D1*
X1546620Y602127D1*
X1549494Y601176D1*
X1552368D1*
X1555220Y602127D1*
X1556171Y603100D1*
X1557144Y605001D1*
X1535647Y621250D2*
X1525146D1*
X1530872Y613601D1*
X1527998D1*
X1526097Y612650D1*
X1525146Y611699D1*
X1524173Y608825D1*
Y606924D1*
X1525146Y604050D1*
X1527047Y602127D1*
X1529921Y601176D1*
X1532795D1*
X1535647Y602127D1*
X1536598Y603100D1*
X1537571Y605001D1*
X1458704Y616475D2*
Y617425D1*
X1457753Y619349D1*
X1456803Y620299D1*
X1454879Y621250D1*
X1451054D1*
X1449153Y620299D1*
X1448203Y619349D1*
X1447230Y617425D1*
Y615524D1*
X1448203Y613601D1*
X1450104Y610749D1*
X1459677Y601176D1*
X1446279D1*
X1428630Y621250D2*
X1438180D1*
X1439131Y612650D1*
X1438180Y613601D1*
X1435306Y614573D1*
X1432454D1*
X1429580Y613601D1*
X1427657Y611699D1*
X1426706Y608825D1*
Y606924D1*
X1427657Y604050D1*
X1429580Y602127D1*
X1432454Y601176D1*
X1435306D1*
X1438180Y602127D1*
X1439131Y603100D1*
X1440104Y605001D1*
X1360286Y621250D2*
X1349785D1*
X1355511Y613601D1*
X1352637D1*
X1350735Y612650D1*
X1349785Y611699D1*
X1348812Y608825D1*
Y606924D1*
X1349785Y604050D1*
X1351686Y602127D1*
X1354560Y601176D1*
X1357434D1*
X1360286Y602127D1*
X1361237Y603100D1*
X1362209Y605001D1*
X1333064Y601176D2*
Y621250D1*
X1342636Y607875D1*
X1328288D1*
X1261868Y621250D2*
X1251367D1*
X1257093Y613601D1*
X1254219D1*
X1252317Y612650D1*
X1251367Y611699D1*
X1250394Y608825D1*
Y606924D1*
X1251367Y604050D1*
X1253268Y602127D1*
X1256142Y601176D1*
X1259016D1*
X1261868Y602127D1*
X1262819Y603100D1*
X1263791Y605001D1*
X1232744Y621250D2*
X1242295D1*
X1243246Y612650D1*
X1242295Y613601D1*
X1239421Y614573D1*
X1236569D1*
X1233695Y613601D1*
X1231772Y611699D1*
X1230821Y608825D1*
Y606924D1*
X1231772Y604050D1*
X1233695Y602127D1*
X1236569Y601176D1*
X1239421D1*
X1242295Y602127D1*
X1243246Y603100D1*
X1244218Y605001D1*
X1165351Y616475D2*
Y617425D1*
X1164401Y619349D1*
X1163450Y620299D1*
X1161527Y621250D1*
X1157702D1*
X1155801Y620299D1*
X1154850Y619349D1*
X1153878Y617425D1*
Y615524D1*
X1154850Y613601D1*
X1156752Y610749D1*
X1166324Y601176D1*
X1152927D1*
X1135277Y618398D2*
X1136228Y620299D1*
X1139102Y621250D1*
X1141003D1*
X1143877Y620299D1*
X1145801Y617425D1*
X1146751Y612650D1*
Y607875D1*
X1145801Y604050D1*
X1143877Y602127D1*
X1141003Y601176D1*
X1140053D1*
X1137201Y602127D1*
X1135277Y604050D1*
X1134327Y606924D1*
Y607875D1*
X1135277Y610749D1*
X1137201Y612650D1*
X1140053Y613601D1*
X1141003D1*
X1143877Y612650D1*
X1145801Y610749D1*
X1146751Y607875D1*
X2384963Y1729050D2*
X2364889D1*
X2378264Y1738623D1*
Y1724275D1*
X2364889Y1638414D2*
Y1627913D1*
X2372538Y1633639D1*
Y1630765D1*
X2373489Y1628864D1*
X2374439Y1627913D1*
X2377313Y1626940D1*
X2379215D1*
X2382089Y1627913D1*
X2384012Y1629814D1*
X2384963Y1632688D1*
Y1635562D1*
X2384012Y1638414D1*
X2383039Y1639365D1*
X2381138Y1640338D1*
X2368713Y1543003D2*
X2367741Y1541080D1*
X2364889Y1538206D1*
X2384963D1*
X2364889Y1527255D2*
X2365839Y1530107D1*
X2367741Y1531079D1*
X2369664D1*
X2371565Y1530107D1*
X2372538Y1528205D1*
X2373489Y1524381D1*
X2374439Y1521507D1*
X2376363Y1519606D1*
X2378264Y1518655D1*
X2381138D1*
X2383039Y1519606D1*
X2384012Y1520556D1*
X2384963Y1523430D1*
Y1527255D1*
X2384012Y1530107D1*
X2383039Y1531079D1*
X2381138Y1532030D1*
X2378264D1*
X2376363Y1531079D1*
X2374439Y1529156D1*
X2373489Y1526304D1*
X2372538Y1522480D1*
X2371565Y1520556D1*
X2369664Y1519606D1*
X2367741D1*
X2365839Y1520556D1*
X2364889Y1523430D1*
Y1527255D1*
X2368713Y1454158D2*
X2367741Y1452235D1*
X2364889Y1449361D1*
X2384963D1*
Y1439360D2*
X2364889Y1429788D1*
Y1443185D1*
X2368713Y1345850D2*
X2367741Y1343927D1*
X2364889Y1341053D1*
X2384963D1*
X2364889Y1329129D2*
X2365839Y1332003D1*
X2368713Y1333927D1*
X2373489Y1334877D1*
X2376363D1*
X2381138Y1333927D1*
X2384012Y1332003D1*
X2384963Y1329129D1*
Y1327228D1*
X2384012Y1324354D1*
X2381138Y1322453D1*
X2376363Y1321480D1*
X2373489D1*
X2368713Y1322453D1*
X2365839Y1324354D1*
X2364889Y1327228D1*
Y1329129D1*
X2368713Y1322453D2*
X2381138Y1333927D1*
X2369664Y1256010D2*
X2368713D1*
X2366790Y1255060D1*
X2365839Y1254109D1*
X2364889Y1252186D1*
Y1248361D1*
X2365839Y1246460D1*
X2366790Y1245509D1*
X2368713Y1244536D1*
X2370615D1*
X2372538Y1245509D1*
X2375390Y1247410D1*
X2384963Y1256983D1*
Y1243586D1*
X2368713Y1140208D2*
X2367741Y1138285D1*
X2364889Y1135411D1*
X2384963D1*
X2368713Y1051473D2*
X2367741Y1049550D1*
X2364889Y1046676D1*
X2384963D1*
X2364889Y1029026D2*
Y1038577D1*
X2373489Y1039528D1*
X2372538Y1038577D1*
X2371565Y1035703D1*
Y1032851D1*
X2372538Y1029977D1*
X2374439Y1028054D1*
X2377313Y1027103D1*
X2379215D1*
X2382089Y1028054D1*
X2384012Y1029977D1*
X2384963Y1032851D1*
Y1035703D1*
X2384012Y1038577D1*
X2383039Y1039528D1*
X2381138Y1040500D1*
X2368713Y943166D2*
X2367741Y941242D1*
X2364889Y938368D1*
X2384963D1*
X2367741Y920719D2*
X2365839Y921669D1*
X2364889Y924543D1*
Y926445D1*
X2365839Y929319D1*
X2368713Y931242D1*
X2373489Y932193D1*
X2378264D1*
X2382089Y931242D1*
X2384012Y929319D1*
X2384963Y926445D1*
Y925494D1*
X2384012Y922642D1*
X2382089Y920719D1*
X2379215Y919768D1*
X2378264D1*
X2375390Y920719D1*
X2373489Y922642D1*
X2372538Y925494D1*
Y926445D1*
X2373489Y929319D1*
X2375390Y931242D1*
X2378264Y932193D1*
X2369664Y854299D2*
X2368714D1*
X2366790Y853348D1*
X2365839Y852397D1*
X2364889Y850474D1*
Y846649D1*
X2365839Y844748D1*
X2366790Y843797D1*
X2368714Y842825D1*
X2370615D1*
X2372538Y843797D1*
X2375390Y845699D1*
X2384963Y855271D1*
Y841874D1*
Y826126D2*
X2364889D1*
X2378264Y835698D1*
Y821350D1*
X698993Y831943D2*
Y842444D1*
X691344Y836718D1*
Y839592D1*
X690393Y841493D1*
X689442Y842444D1*
X686568Y843417D1*
X684667D1*
X681793Y842444D1*
X679870Y840543D1*
X678919Y837669D1*
Y834795D1*
X679870Y831943D1*
X680842Y830992D1*
X682744Y830019D1*
X696141Y861066D2*
X698042Y860116D1*
X698993Y857242D1*
Y855340D1*
X698042Y852466D1*
X695168Y850543D1*
X690393Y849592D1*
X685618D1*
X681793Y850543D1*
X679870Y852466D1*
X678919Y855340D1*
Y856291D1*
X679870Y859143D1*
X681793Y861066D1*
X684667Y862017D1*
X685618D1*
X688492Y861066D1*
X690393Y859143D1*
X691344Y856291D1*
Y855340D1*
X690393Y852466D1*
X688492Y850543D1*
X685618Y849592D1*
X694218Y927487D2*
X695168D1*
X697092Y928437D1*
X698042Y929388D1*
X698993Y931311D1*
Y935136D1*
X698042Y937037D1*
X697092Y937988D1*
X695168Y938960D1*
X693267D1*
X691344Y937988D1*
X688492Y936086D1*
X678919Y926514D1*
Y939911D1*
X695168Y946087D2*
X696141Y948010D1*
X698993Y950884D1*
X678919D1*
X698993Y1017304D2*
Y1027806D1*
X691344Y1022080D1*
Y1024954D1*
X690393Y1026855D1*
X689442Y1027806D1*
X686568Y1028778D1*
X684667D1*
X681793Y1027806D1*
X679870Y1025904D1*
X678919Y1023030D1*
Y1020156D1*
X679870Y1017304D1*
X680842Y1016354D1*
X682744Y1015381D1*
X678919Y1038779D2*
X698993Y1048351D1*
Y1034954D1*
Y1114772D2*
Y1125273D1*
X691344Y1119547D1*
Y1122421D1*
X690393Y1124322D1*
X689442Y1125273D1*
X686568Y1126246D1*
X684667D1*
X681793Y1125273D1*
X679870Y1123372D1*
X678919Y1120498D1*
Y1117624D1*
X679870Y1114772D1*
X680842Y1113821D1*
X682744Y1112848D1*
X698993Y1137197D2*
X698042Y1134345D1*
X696141Y1133372D1*
X694218D1*
X692316Y1134345D1*
X691344Y1136246D1*
X690393Y1140071D1*
X689442Y1142945D1*
X687519Y1144846D1*
X685618Y1145797D1*
X682744D1*
X680842Y1144846D1*
X679870Y1143895D1*
X678919Y1141021D1*
Y1137197D1*
X679870Y1134345D1*
X680842Y1133372D1*
X682744Y1132421D1*
X685618D1*
X687519Y1133372D1*
X689442Y1135295D1*
X690393Y1138147D1*
X691344Y1141972D1*
X692316Y1143895D1*
X694218Y1144846D1*
X696141D1*
X698042Y1143895D1*
X698993Y1141021D1*
Y1137197D1*
X694218Y1211266D2*
X695168D1*
X697092Y1212217D1*
X698042Y1213167D1*
X698993Y1215091D1*
Y1218915D1*
X698042Y1220817D1*
X697092Y1221767D1*
X695168Y1222740D1*
X693267D1*
X691344Y1221767D1*
X688492Y1219866D1*
X678919Y1210293D1*
Y1223691D1*
Y1233691D2*
X698993Y1243264D1*
Y1229866D1*
X694218Y1308733D2*
X695168D1*
X697092Y1309684D1*
X698042Y1310635D1*
X698993Y1312558D1*
Y1316383D1*
X698042Y1318284D1*
X697092Y1319235D1*
X695168Y1320207D1*
X693267D1*
X691344Y1319235D1*
X688492Y1317333D1*
X678919Y1307761D1*
Y1321158D1*
X698993Y1332109D2*
X698042Y1329257D1*
X696141Y1328284D1*
X694218D1*
X692316Y1329257D1*
X691344Y1331158D1*
X690393Y1334983D1*
X689442Y1337857D1*
X687519Y1339758D1*
X685618Y1340709D1*
X682744D1*
X680842Y1339758D1*
X679870Y1338808D1*
X678919Y1335934D1*
Y1332109D1*
X679870Y1329257D1*
X680842Y1328284D1*
X682744Y1327334D1*
X685618D1*
X687519Y1328284D1*
X689442Y1330208D1*
X690393Y1333060D1*
X691344Y1336884D1*
X692316Y1338808D1*
X694218Y1339758D1*
X696141D1*
X698042Y1338808D1*
X698993Y1335934D1*
Y1332109D1*
X694218Y1425619D2*
X695168D1*
X697092Y1426570D1*
X698042Y1427520D1*
X698993Y1429444D1*
Y1433268D1*
X698042Y1435169D1*
X697092Y1436120D1*
X695168Y1437093D1*
X693267D1*
X691344Y1436120D1*
X688492Y1434219D1*
X678919Y1424646D1*
Y1438043D1*
X698993Y1446143D2*
Y1456644D1*
X691344Y1450918D1*
Y1453792D1*
X690393Y1455693D1*
X689442Y1456644D1*
X686568Y1457616D1*
X684667D1*
X681793Y1456644D1*
X679870Y1454742D1*
X678919Y1451868D1*
Y1448994D1*
X679870Y1446143D1*
X680842Y1445192D1*
X682744Y1444219D1*
X694218Y1523086D2*
X695168D1*
X697092Y1524037D1*
X698042Y1524987D1*
X698993Y1526911D1*
Y1530735D1*
X698042Y1532637D1*
X697092Y1533587D1*
X695168Y1534560D1*
X693267D1*
X691344Y1533587D1*
X688492Y1531686D1*
X678919Y1522113D1*
Y1535511D1*
X694218Y1542659D2*
X695168D1*
X697092Y1543610D1*
X698042Y1544560D1*
X698993Y1546484D1*
Y1550308D1*
X698042Y1552210D1*
X697092Y1553160D1*
X695168Y1554133D1*
X693267D1*
X691344Y1553160D1*
X688492Y1551259D1*
X678919Y1541686D1*
Y1555084D1*
X695168Y1619581D2*
X696141Y1621504D1*
X698993Y1624378D1*
X678919D1*
Y1640126D2*
X698993D1*
X685618Y1630554D1*
Y1644902D1*
X695168Y1709398D2*
X696141Y1711322D1*
X698993Y1714196D1*
X678919D1*
X698993Y1722295D2*
Y1732796D1*
X691343Y1727070D1*
X691344Y1729944D1*
X690393Y1731845D1*
X689442Y1732796D1*
X686568Y1733769D1*
X684667D1*
X681793Y1732796D1*
X679870Y1730895D1*
X678919Y1728021D1*
Y1725147D1*
X679870Y1722295D1*
X680842Y1721344D1*
X682744Y1720372D1*
M02*
