G04 DipTrace 3.3.1.3*
G04 Bottom.gbr*
%MOIN*%
G04 #@! TF.FileFunction,Copper,L2,Bot*
G04 #@! TF.Part,Single*
G04 #@! TA.AperFunction,Conductor*
%ADD13C,0.006*%
G04 #@! TA.AperFunction,ComponentPad*
%ADD15O,0.07874X0.11811*%
%ADD16O,0.11811X0.07874*%
G04 #@! TA.AperFunction,ViaPad*
%ADD18C,0.02*%
%FSLAX26Y26*%
G04*
G70*
G90*
G75*
G01*
G04 Bottom*
%LPD*%
X1407763Y1321823D2*
D13*
X993701Y1735886D1*
X814039D1*
X1431201Y1337449D2*
Y1696825D1*
X1348426Y1779600D1*
Y1837486D1*
X1493701Y1337449D2*
X1493696Y1337453D1*
Y1548381D1*
X1743701Y1798386D1*
Y1837486D1*
X1748426D1*
X1431201Y1267137D2*
Y1196823D1*
X1170264Y935886D1*
X814014D1*
X814039Y1435886D2*
Y1431199D1*
X1243701D1*
X1362451Y1312449D1*
Y1289010D1*
X1360886Y1290574D1*
X1353077Y1243699D2*
X1298388Y1189011D1*
X985889D1*
X839014Y1335886D1*
X814014D1*
X1392138Y1243699D2*
X1314014Y1165574D1*
X915575D1*
X845263Y1235886D1*
X814014D1*
X1470263Y1298386D2*
Y1673385D1*
X1548426Y1751548D1*
Y1837486D1*
X1564014Y1329636D2*
Y1462448D1*
X1939052Y1837486D1*
X1948426D1*
X1595263Y1329636D2*
X1801514Y1535886D1*
X2259377D1*
X1454638Y1251511D2*
Y1048385D1*
X1148426Y742172D1*
Y735886D1*
X1532763Y1243699D2*
Y993699D1*
X1448426Y909361D1*
Y735886D1*
X1673389Y1274949D2*
X1665575D1*
X2004638Y935886D1*
X2259377D1*
X1712451Y1267137D2*
X1704638D1*
X1935889Y1035886D1*
X2259377D1*
X1657763Y1243699D2*
X2048388Y853074D1*
X2259377D1*
Y835886D1*
X1392138Y1298386D2*
X1387451D1*
Y1312448D1*
X1164012Y1535886D1*
X814039D1*
X1634326Y1290574D2*
X1779638Y1435886D1*
X2259377D1*
D18*
X1360886Y1290574D3*
X1407763Y1321823D3*
X1431201Y1337449D3*
X1493701D3*
X1353077Y1243699D3*
X1392138D3*
X1470263Y1298386D3*
X1564014Y1329636D3*
X1595263D3*
X1431201Y1267137D3*
X1454638Y1251511D3*
X1532763Y1243699D3*
X1673389Y1274949D3*
X1712451Y1267137D3*
X1657763Y1243699D3*
X1392138Y1298386D3*
X1634326Y1290574D3*
D15*
X1848426Y735886D3*
X1748426D3*
X1648426D3*
X1548426Y1837486D3*
X1948426D3*
D16*
X2259377Y1635886D3*
Y1535886D3*
D15*
X1448426Y735886D3*
D16*
X2259377Y1735886D3*
D15*
X1748426Y1837486D3*
X1348426D3*
D16*
X814039Y1735886D3*
Y1635886D3*
D15*
X1148426Y735886D3*
X1548426D3*
X1348426D3*
X1248426D3*
D16*
X814014Y935886D3*
Y835886D3*
Y1035886D3*
Y1235886D3*
Y1135886D3*
Y1335886D3*
X814039Y1435886D3*
Y1535886D3*
X2259377Y1435886D3*
Y1335886D3*
Y1235886D3*
Y1135886D3*
Y935886D3*
Y1035886D3*
Y835886D3*
D15*
X1948426Y735886D3*
X1848426Y1837486D3*
X1648426D3*
X1448426Y1837449D3*
X1248426Y1837486D3*
X1148426D3*
M02*
