M48
INCH
T01C0.01
T02C0.0394
T03C0.0787
T04C0.1562
%
T01
X+014078Y+013218
X+013921Y+012984
X+013609Y+012906
X+013531Y+012437
X+013921Y+012437
X+014312Y+012671
X+014546Y+012515
X+014703Y+012984
X+014937Y+013374
X+014312Y+013374
X+015640Y+013296
X+015953Y+013296
X+016343Y+012906
X+016734Y+012749
X+016578Y+012437
X+017125Y+012671
X+015328Y+012437
T02
X+018484Y+007359
X+017484Y+007359
X+016484Y+007359
X+015484Y+007359
X+014484Y+007359
X+013484Y+007359
X+012484Y+007359
X+011484Y+007359
X+008140Y+008359
X+008140Y+009359
X+008140Y+010359
X+008140Y+011359
X+008140Y+012359
X+008140Y+013359
X+008140Y+014359
X+008140Y+015359
X+008140Y+016359
X+008140Y+017359
X+011484Y+018375
X+012484Y+018375
X+013484Y+018375
X+014484Y+018374
X+015484Y+018375
X+016484Y+018375
X+017484Y+018375
X+018484Y+018375
X+019484Y+018375
X+022594Y+017359
X+022594Y+016359
X+022594Y+015359
X+022594Y+014359
X+022594Y+013359
X+022594Y+012359
X+022594Y+011359
X+022594Y+010359
X+022594Y+009359
X+022594Y+008359
X+019484Y+007359
T03
X+010484Y+012906
X+020250Y+012906
T04
X+012515Y+012906
X+018140Y+012906
T00
M30
