G04 DipTrace 3.3.1.3*
G04 TopMask.gbr*
%MOIN*%
G04 #@! TF.FileFunction,Soldermask,Top*
G04 #@! TF.Part,Single*
%ADD17C,0.025591*%
%ADD20C,0.07874*%
%ADD21C,0.156199*%
%ADD28O,0.12599X0.08662*%
%ADD30O,0.08662X0.12599*%
%FSLAX26Y26*%
G04*
G70*
G90*
G75*
G01*
G04 TopMask*
%LPD*%
D20*
X1048389Y1290574D3*
X2024951D3*
D21*
X1251514D3*
X1814014D3*
D30*
X1848426Y735886D3*
X1748426D3*
X1648426D3*
X1548426Y1837486D3*
X1948426D3*
D28*
X2259377Y1635886D3*
Y1535886D3*
D30*
X1448426Y735886D3*
D28*
X2259377Y1735886D3*
D30*
X1748426Y1837486D3*
X1348426D3*
D28*
X814039Y1735886D3*
Y1635886D3*
D30*
X1148426Y735886D3*
X1548426D3*
X1348426D3*
X1248426D3*
D28*
X814014Y935886D3*
Y835886D3*
Y1035886D3*
Y1235886D3*
Y1135886D3*
Y1335886D3*
X814039Y1435886D3*
Y1535886D3*
D17*
X1360886Y1368699D3*
X1399949D3*
X1439014D3*
D28*
X2259377Y1435886D3*
D17*
X1517138Y1368699D3*
X1478077D3*
X1360886Y1329636D3*
X1399952Y1329637D3*
X1439014D3*
D28*
X2259377Y1335886D3*
Y1235886D3*
D17*
X1478077Y1329637D3*
D28*
X2259377Y1135886D3*
D17*
X1360886Y1290574D3*
D28*
X2259377Y935886D3*
D17*
X1399949Y1290574D3*
D28*
X2259377Y1035886D3*
D17*
X1439014Y1290574D3*
D28*
X2259377Y835886D3*
D17*
X1517138Y1290574D3*
D30*
X1948426Y735886D3*
D17*
X1478075Y1290574D3*
X1360886Y1251511D3*
X1399949D3*
X1517138D3*
X1478075D3*
X1360886Y1212449D3*
X1399949D3*
X1439014D3*
D30*
X1848426Y1837486D3*
D17*
X1517138Y1212449D3*
D30*
X1648426Y1837486D3*
D17*
X1478075Y1212449D3*
D30*
X1448426Y1837449D3*
D17*
X1556201Y1368699D3*
D30*
X1248426Y1837486D3*
D17*
X1595263Y1368699D3*
D30*
X1148426Y1837486D3*
D17*
X1712451Y1368699D3*
X1673389D3*
X1634327Y1329636D3*
X1556201Y1290574D3*
X1595264D3*
X1712452D3*
X1673389D3*
X1634326Y1251511D3*
X1556201Y1212449D3*
X1595264D3*
X1634326D3*
X1712451D3*
X1673389D3*
M02*
